PathFileType	4	(X/Y/Z)	/Users/itak/Documents/Research/Walk-IL/dataset/trc/00031_00004.trc
DataRate	CameraRate	NumFrames	NumMarkers	Units	OrigDataRate	OrigDataStartFrame	OrigNumFrames
100.000000	100.000000	4	53	mm	100.000000	668	764
Frame#	Time	RPSI			LPSI			L3			STRN			T10			C7			CLAV			RBAK			LBAK			LSHO			LUPA			LAEL			LAOL			LWTS			LWPS			LFRA			LIFD			LHPS			LHTS			RSHO			RUPA			RAEL			RAOL			RWTS			RWPS			RFRA			RIFD			RHTS			RHPS			RBHD			LFHD			RFHD			LBHD			LHIP			RHIP			RASI			LASI			LKNE			LTHI			LANK			LTIP			LTOE			LMT1			LMT5			LHEE			RKNE			RTHI			RANK			RTIP			RTOE			RMT1			RMT5			RHEE			
		X1	Y1	Z1	X2	Y2	Z2	X3	Y3	Z3	X4	Y4	Z4	X5	Y5	Z5	X6	Y6	Z6	X7	Y7	Z7	X8	Y8	Z8	X9	Y9	Z9	X10	Y10	Z10	X11	Y11	Z11	X12	Y12	Z12	X13	Y13	Z13	X14	Y14	Z14	X15	Y15	Z15	X16	Y16	Z16	X17	Y17	Z17	X18	Y18	Z18	X19	Y19	Z19	X20	Y20	Z20	X21	Y21	Z21	X22	Y22	Z22	X23	Y23	Z23	X24	Y24	Z24	X25	Y25	Z25	X26	Y26	Z26	X27	Y27	Z27	X28	Y28	Z28	X29	Y29	Z29	X30	Y30	Z30	X31	Y31	Z31	X32	Y32	Z32	X33	Y33	Z33	X34	Y34	Z34	X35	Y35	Z35	X36	Y36	Z36	X37	Y37	Z37	X38	Y38	Z38	X39	Y39	Z39	X40	Y40	Z40	X41	Y41	Z41	X42	Y42	Z42	X43	Y43	Z43	X44	Y44	Z44	X45	Y45	Z45	X46	Y46	Z46	X47	Y47	Z47	X48	Y48	Z48	X49	Y49	Z49	X50	Y50	Z50	X51	Y51	Z51	X52	Y52	Z52	X53	Y53	Z53	

669	6.68	413.1759643554688	1083.106079101562	998.2094116210938	427.2581176757812	1067.923950195312	1160.61767578125	426.4665832519531	1135.119750976562	1094.111083984375	202.8450775146484	1323.84228515625	1104.299438476562	452.4285888671875	1278.15283203125	1112.2666015625	397.8055725097656	1544.177856445312	1139.877319335938	243.5340423583984	1449.189208984375	1117.921264648438	460.2267761230469	1413.524536132812	1055.100830078125	410.4724426269531	1498.437255859375	1235.733764648438	303.9547729492188	1500.277465820312	1300.969482421875	328.7572937011719	1377.163330078125	1381.494018554688	326.4235534667969	1162.582397460938	1413.456420898438	388.7363891601562	1145.320068359375	1329.079467773438	214.1854248046875	922.775634765625	1348.313598632812	283.0162048339844	898.7735595703125	1398.995239257812	300.9790344238281	1048.643920898438	1419.825805664062	168.4652252197266	740.6885986328125	1329.6142578125	237.6856079101562	813.8209838867188	1393.1025390625	179.8311614990234	832.75	1357.5478515625	335.0428161621094	1536.9365234375	959.9677734375	358.4720764160156	1472.87109375	887.4722900390625	416.614013671875	1211.516357421875	847.7041015625	408.2935791015625	1177.784301757812	941.0404052734375	284.782470703125	950.842529296875	851.68017578125	353.9390258789062	938.158447265625	792.04248046875	407.3915710449219	1134.959594726562	825.4552612304688	263.6539916992188	764.18603515625	859.6862182617188	250.9698333740234	842.9439086914062	831.8209838867188	311.3017883300781	837.6847534179688	786.5916137695312	324.2897644042969	1726.009155273438	1200.093139648438	173.7355194091797	1729.048095703125	1042.182983398438	153.7292633056641	1731.530151367188	1138.551147460938	347.6148681640625	1720.006469726562	1057.814819335938	336.9660339355469	960.6860961914062	1267.274658203125	291.736083984375	970.7171020507812	896.7296752929688	197.47314453125	1004.641479492188	978.8751220703125	215.9166259765625	1007.174011230469	1213.373046875	248.0492706298828	524.8525390625	1221.68798828125	289.7997436523438	657.8397827148438	1257.166625976562	341.2318420410156	40.63829040527344	1213.635131835938	321.1387023925781	285.2478942871094	1232.968383789062	118.2991638183594	40.51317596435547	1154.46435546875	177.5774536132812	48.89803695678711	1138.016967773438	217.8817138671875	37.16134643554688	1238.82421875	407.6949768066406	47.65256881713867	1158.845581054688	217.7737579345703	535.2333374023438	943.6686401367188	249.9535369873047	806.2190551757812	899.8441772460938	339.5012512207031	51.23319244384766	951.2420654296875	240.4274597167969	410.1896362304688	940.7869262695312	113.6804733276367	53.30143356323242	1010.6171875	179.7731018066406	54.09795761108398	1035.665161132812	189.9344177246094	47.41994857788086	940.7295532226562	397.8222045898438	53.11545944213867	992.4512939453125	
670	6.69	411.0661926269531	1082.815551757812	998.2776489257812	425.1995849609375	1067.739379882812	1160.72314453125	424.4697570800781	1134.73828125	1094.072387695312	201.4283447265625	1323.988525390625	1104.37353515625	450.8210754394531	1277.712524414062	1112.05322265625	396.9547424316406	1543.911743164062	1139.6015625	242.4407501220703	1449.231323242188	1117.917358398438	458.8903503417969	1413.046508789062	1054.771484375	409.6725769042969	1498.141845703125	1235.43701171875	303.2671813964844	1500.182739257812	1300.889282226562	327.9882507324219	1376.871704101562	1381.17626953125	325.3353881835938	1162.16455078125	1412.685424804688	387.5349426269531	1145.043579101562	1328.207763671875	212.9466400146484	922.548095703125	1347.059814453125	281.8517150878906	898.3925170898438	1397.609008789062	299.8089599609375	1048.195678710938	1418.795288085938	167.3239593505859	740.425537109375	1328.076782226562	236.4856262207031	813.4553833007812	1391.538940429688	178.5977020263672	832.477294921875	1356.066528320312	333.9124145507812	1536.765625	959.77294921875	357.0249938964844	1472.585083007812	887.235595703125	414.1513366699219	1210.863525390625	847.5721435546875	406.0813598632812	1177.310180664062	940.9645385742188	280.81103515625	950.9552001953125	852.6334838867188	349.5549621582031	937.7567138671875	792.6782836914062	404.4365539550781	1134.275634765625	825.4588012695312	258.4853515625	764.4658203125	860.923095703125	246.2163543701172	843.2445678710938	833.0714721679688	306.2601623535156	837.5509643554688	787.532958984375	323.7380676269531	1726.025512695312	1200.06982421875	172.8925323486328	1729.171997070312	1042.461791992188	153.0308990478516	1731.629150390625	1138.834350585938	346.7843627929688	1720.0703125	1057.747436523438	334.8412475585938	960.7320556640625	1267.54541015625	289.6007080078125	970.3538208007812	897.10791015625	195.3035736083984	1004.506958007812	979.2117309570312	213.7357330322266	1007.354797363281	1213.61181640625	247.4439086914062	524.6085205078125	1221.948852539062	288.7357788085938	657.744384765625	1257.413818359375	341.2451477050781	40.62547302246094	1213.626586914062	321.0022888183594	285.2516174316406	1233.02587890625	118.3119506835938	40.51203536987305	1154.47705078125	177.5691680908203	48.89925765991211	1138.026245117188	217.88623046875	37.14243698120117	1238.852905273438	407.7350769042969	47.7031135559082	1158.84228515625	217.0281677246094	534.87548828125	944.1705932617188	248.0869903564453	805.8197021484375	900.4625854492188	337.9402160644531	51.04901123046875	951.9879150390625	239.7000732421875	409.8674011230469	941.2599487304688	111.8946304321289	51.35675048828125	1010.984191894531	177.9449615478516	52.76996231079102	1036.109619140625	188.3603210449219	46.36842346191406	941.2091064453125	396.2095031738281	53.22043991088867	993.24560546875	
671	6.7	408.9923706054688	1082.5126953125	998.2796020507812	423.1890869140625	1067.546875	1160.760498046875	422.5161437988281	1134.351196289062	1093.96044921875	200.0627288818359	1324.115356445312	1104.420776367188	449.2592163085938	1277.267822265625	1111.745361328125	396.1653442382812	1543.634765625	1139.235961914062	241.3950958251953	1449.252319335938	1117.871704101562	457.581787109375	1412.559692382812	1054.338989257812	408.9607849121094	1497.83447265625	1235.045532226562	302.6890563964844	1500.083374023438	1300.750244140625	327.3678283691406	1376.571411132812	1380.786865234375	324.4334716796875	1161.748168945312	1411.843994140625	386.4640502929688	1144.775024414062	1327.239868164062	211.8926696777344	922.3014526367188	1345.799682617188	280.8953552246094	898.0050659179688	1396.19140625	298.8435363769531	1047.74462890625	1417.713134765625	166.3831329345703	740.1430053710938	1326.555786132812	235.5074462890625	813.0814819335938	1389.973388671875	177.5646362304688	832.1851196289062	1354.601806640625	332.7939147949219	1536.5849609375	959.5076293945312	355.5537414550781	1472.289184570312	886.9179077148438	411.6038513183594	1210.187866210938	847.3651733398438	403.8024597167969	1176.81787109375	940.8218994140625	276.8444213867188	951.0213012695312	853.497802734375	345.1903686523438	937.3339233398438	793.2442016601562	401.4127502441406	1133.579833984375	825.400146484375	253.4320678710938	764.6806640625	862.0885620117188	241.5276947021484	843.48095703125	834.2376098632812	301.2794494628906	837.3810424804688	788.4012451171875	323.2539367675781	1726.042846679688	1199.96923828125	172.1011962890625	1729.283447265625	1042.677856445312	152.4080657958984	1731.71337890625	1139.076416015625	346.0018920898438	1720.116943359375	1057.602172851562	332.7661437988281	960.7706909179688	1267.762939453125	287.471435546875	969.9790649414062	897.4359741210938	193.1775207519531	1004.350769042969	979.5096435546875	211.5953216552734	1007.551452636719	1213.796142578125	246.8500671386719	524.3823852539062	1222.177368164062	287.6713562011719	657.6367797851562	1257.615112304688	341.2574157714844	40.61344146728516	1213.616821289062	320.8723754882812	285.2710571289062	1233.065795898438	118.3232879638672	40.5120735168457	1154.488647460938	177.5591278076172	48.89914321899414	1138.031005859375	217.8914184570312	37.12497329711914	1238.878784179688	407.7733459472656	47.7535514831543	1158.835205078125	216.4144287109375	534.480224609375	944.5440673828125	246.3022613525391	805.412353515625	900.9968872070312	336.9357299804688	50.91070938110352	952.7645874023438	239.2228393554688	409.5141906738281	941.65625	110.5850448608398	49.57058715820312	1011.181762695312	176.5845031738281	51.58485412597656	1036.421142578125	187.3275604248047	45.44258499145508	941.57373046875	395.1182250976562	53.36001205444336	994.1060180664062	
672	6.71	406.9598693847656	1082.201171875	998.22265625	421.2291870117188	1067.35009765625	1160.736694335938	420.6079406738281	1133.963989257812	1093.78271484375	198.7489776611328	1324.225708007812	1104.440795898438	447.7435607910156	1276.82421875	1111.349731445312	395.4319458007812	1543.350219726562	1138.786376953125	240.3952331542969	1449.257202148438	1117.78564453125	456.2986145019531	1412.06884765625	1053.810668945312	408.3277893066406	1497.519165039062	1234.565185546875	302.2104797363281	1499.982177734375	1300.554077148438	326.8862915039062	1376.267333984375	1380.329223632812	323.7075805664062	1161.337646484375	1410.937744140625	385.5160217285156	1144.519775390625	1326.180786132812	211.0210723876953	922.0335083007812	1344.537963867188	280.138671875	897.6140747070312	1394.749145507812	298.0774536132812	1047.296264648438	1416.58447265625	165.6392211914062	739.8421020507812	1325.056274414062	234.7496948242188	812.703369140625	1388.410888671875	176.7284851074219	831.8745727539062	1353.158447265625	331.6868591308594	1536.399658203125	959.1749877929688	354.0598754882812	1471.988403320312	886.5233154296875	408.9718017578125	1209.497802734375	847.089111328125	401.4552001953125	1176.313842773438	940.6187744140625	272.8897094726562	951.0444946289062	854.27490234375	340.8506469726562	936.8961791992188	793.7399291992188	398.3222351074219	1132.880126953125	825.2841186523438	248.5044555664062	764.8319091796875	863.1812744140625	236.9110412597656	843.6553955078125	835.3203125	296.3681945800781	837.1798706054688	789.1953735351562	322.8343200683594	1726.062133789062	1199.795532226562	171.3553619384766	1729.38623046875	1042.8349609375	151.8565673828125	1731.786743164062	1139.281616210938	345.2640686035156	1720.14892578125	1057.38330078125	330.7381591796875	960.8042602539062	1267.929443359375	285.3559265136719	969.5994262695312	897.7137451171875	191.0973052978516	1004.18017578125	979.7640380859375	209.5096740722656	1007.757629394531	1213.93115234375	246.2685394287109	524.175537109375	1222.36376953125	286.6061401367188	657.521728515625	1257.766235351562	341.2684326171875	40.60306167602539	1213.606201171875	320.7472534179688	285.3042907714844	1233.0859375	118.3337707519531	40.51331329345703	1154.4990234375	177.5481109619141	48.89856719970703	1138.03173828125	217.8970031738281	37.1094856262207	1238.900634765625	407.808349609375	47.80222320556641	1158.82421875	215.9556579589844	534.0470581054688	944.7998657226562	244.6177673339844	805.0004272460938	901.4354858398438	336.3842468261719	50.78408432006836	953.55224609375	238.9859466552734	409.1357421875	941.978515625	109.6682510375977	48.01689147949219	1011.236938476562	175.6141357421875	50.58113861083984	1036.616088867188	186.7311706542969	44.66518402099609	941.8346557617188	394.4478149414062	53.47829055786133	995.0035400390625	
